<svg aria-hidden="true" style="position:absolute;width:0;height:0;overflow:hidden" xmlns="http://www.w3.org/2000/svg">
  <defs>
    <symbol id="icon-quote" viewBox="0 0 32 32">
      <path fill="#ff6b08" style="fill:var(--color1, #ff6b08)" d="m27.564 4.807.739 1.149c-5.089 3.338-7.634 6.676-7.634 10.015 0 1.696.739 2.681 2.216 2.955l3.448-3.201c1.094.383 2.079 1.094 2.955 2.134.93.985 1.395 2.271 1.395 3.858s-.629 2.955-1.888 4.104c-1.259 1.095-2.928 1.642-5.007 1.642-2.025 0-3.721-.684-5.089-2.052-1.313-1.423-1.97-3.366-1.97-5.828 0-5.363 3.612-10.288 10.835-14.776zm-15.432 0 .739 1.149c-5.089 3.338-7.634 6.676-7.634 10.015 0 1.696.739 2.681 2.216 2.955l3.448-3.201c1.094.383 2.08 1.094 2.955 2.134.93.985 1.396 2.271 1.396 3.858s-.629 2.955-1.888 4.104c-1.259 1.095-2.928 1.642-5.007 1.642-2.025 0-3.721-.684-5.089-2.052-1.313-1.423-1.97-3.366-1.97-5.828 0-5.363 3.612-10.288 10.835-14.776z"/>
    </symbol>
    <symbol id="icon-back" viewBox="0 0 32 32">
      <path fill="#ff6b08" style="fill:var(--color1, #ff6b08)" d="m.367 16.913.001.001 6.532 6.71c.489.503 1.281.501 1.768-.004s.485-1.322-.004-1.825L4.279 17.29h26.472c.69 0 1.25-.578 1.25-1.29s-.56-1.29-1.25-1.29H4.279l4.385-4.505c.489-.503.491-1.32.004-1.825S7.389 7.873 6.9 8.376l-6.532 6.71-.001.001a1.321 1.321 0 0 0 0 1.827z"/>
    </symbol>
    <symbol id="icon-flag" viewBox="0 0 32 32">
      <path fill="#a6abb9" style="fill:var(--color2, #a6abb9)" d="m15.736 3.765.753 3.765h9.864v11.294h-6.325l-.753-3.765H5.647V3.765h10.089zM18.824 0H1.883v32h3.765V18.824h10.541l.753 3.765h13.176V3.765H19.577L18.824 0z"/>
    </symbol>
    <symbol id="icon-home" viewBox="0 0 32 32">
      <path fill="#a6abb9" style="fill:var(--color2, #a6abb9)" d="m16 6.704 8 7.2V26.4h-3.2v-9.6h-9.6v9.6H8V13.904l8-7.2zM16 2.4 0 16.8h4.8v12.8h9.6V20h3.2v9.6h9.6V16.8H32L16 2.4z"/>
    </symbol>
    <symbol id="icon-library" viewBox="0 0 32 32">
      <path fill="#a6abb9" style="fill:var(--color2, #a6abb9)" d="M29.091 4.364c-1.615-.509-3.389-.727-5.091-.727-2.836 0-5.891.582-8 2.182-2.109-1.6-5.164-2.182-8-2.182s-5.891.582-8 2.182v21.309c0 .364.364.727.727.727.145 0 .218-.073.364-.073 1.964-.945 4.8-1.6 6.909-1.6 2.836 0 5.891.582 8 2.182 1.964-1.236 5.527-2.182 8-2.182 2.4 0 4.873.436 6.909 1.527.145.073.218.073.364.073.364 0 .727-.364.727-.727V5.819c-.873-.655-1.818-1.091-2.909-1.455zm0 19.636c-1.6-.509-3.345-.727-5.091-.727-2.473 0-6.036.945-8 2.182V8.728c1.964-1.236 5.527-2.182 8-2.182 1.745 0 3.491.218 5.091.727V24z"/>
      <path fill="#a6abb9" style="fill:var(--color2, #a6abb9)" d="M24 12.364c1.28 0 2.516.131 3.636.378v-2.211A19.651 19.651 0 0 0 24 10.182c-2.473 0-4.713.422-6.545 1.207v2.415c1.644-.931 3.927-1.44 6.545-1.44zM17.455 15.258v2.415c1.644-.931 3.927-1.44 6.545-1.44 1.28 0 2.516.131 3.636.378V14.4A19.651 19.651 0 0 0 24 14.051c-2.473 0-4.713.436-6.545 1.207zM24 17.935c-2.473 0-4.713.422-6.545 1.207v2.415c1.644-.931 3.927-1.44 6.545-1.44 1.28 0 2.516.131 3.636.378v-2.211A18.443 18.443 0 0 0 24 17.935z"/>
    </symbol>
    <symbol id="icon-star" viewBox="0 0 32 32">
      <path fill="none" stroke="#ff6b08" style="stroke:var(--color1, #ff6b08)" stroke-width="1.882" d="m16 3.987 2.908 8.951h9.412l-7.614 5.532 2.908 8.951L16 21.889l-7.614 5.532 2.908-8.951-7.614-5.532h9.412L16 3.987z"/>
    </symbol>
    <symbol id="icon-thumb" viewBox="0 0 32 32">
      <path fill="#a6abb9" style="fill:var(--color2, #a6abb9)" d="M12 28h12a2.648 2.648 0 0 0 2.453-1.627l4.027-9.4c.12-.307.187-.627.187-.973v-2.667c0-1.467-1.2-2.667-2.667-2.667h-8.413l1.267-6.093.04-.427c0-.547-.227-1.053-.587-1.413l-1.413-1.4-8.787 8.787A2.65 2.65 0 0 0 9.334 12v13.333c0 1.467 1.2 2.667 2.667 2.667zm0-16 5.787-5.787L16 13.333h12V16l-4 9.333H12V12zM1.333 12h5.333v16H1.333V12z"/>
    </symbol>
    <symbol id="icon-enter" viewBox="0 0 32 32">
      <path fill="#ff6b08" style="fill:var(--color1, #ff6b08)" d="M25.574 22.883c-.063-.305-.311-.447-.493-.638-1.316-1.39-2.653-2.768-3.972-4.159-.562-.59-.611-1.221-.168-1.669s1.062-.409 1.609.162a1630.82 1630.82 0 0 1 6.306 6.576c.644.676.636 1.149-.013 1.831a1675.173 1675.173 0 0 1-6.251 6.524c-.576.598-1.141.644-1.609.171s-.398-1.085.158-1.671c1.303-1.373 2.618-2.734 3.922-4.104.183-.192.424-.34.499-.644-.206-.211-.461-.111-.687-.111-6.87-.007-13.743-.011-20.619-.011-1.303 0-1.579-.296-1.579-1.654V1.669a4.14 4.14 0 0 1 .022-.763c.111-.563.453-.915 1.015-.905s.893.365.997.929c.025.227.031.457.016.685 0 6.866.01 13.731-.012 20.589 0 .648.177.799.774.796 6.456-.021 12.912-.012 19.368-.017.249.012.505.101.718-.101z"/>
    </symbol>
    <symbol id="icon-plus" viewBox="0 0 32 32">
      <path fill="#fff" style="fill:var(--color3, #fff)" d="M30.4 14.4H17.6V1.6a1.6 1.6 0 0 0-3.2 0v12.8H1.6a1.6 1.6 0 0 0 0 3.2h12.8v12.8a1.6 1.6 0 0 0 3.2 0V17.6h12.8a1.6 1.6 0 0 0 0-3.2z"/>
    </symbol>
    <symbol id="icon-calendar" viewBox="0 0 32 32">
      <path fill="#a6abb9" style="fill:var(--color2, #a6abb9)" d="M28.25 2.5h-1.5V0h-2.5v2.5H7.75V0h-2.5v2.5h-1.5A3.754 3.754 0 0 0 0 6.25v22A3.754 3.754 0 0 0 3.75 32h24.5A3.754 3.754 0 0 0 32 28.25v-22a3.754 3.754 0 0 0-3.75-3.75zm1.25 25.75c0 .689-.561 1.25-1.25 1.25H3.75c-.689 0-1.25-.561-1.25-1.25v-16.5h27v16.5zm0-19h-27v-3C2.5 5.561 3.061 5 3.75 5h1.5v2.5h2.5V5h16.5v2.5h2.5V5h1.5c.689 0 1.25.561 1.25 1.25v3z"/>
    </symbol>
    <symbol id="icon-arrow" viewBox="0 0 32 32">
      <path fill="#ff6b08" style="fill:var(--color1, #ff6b08)" d="M23.662 15.122 9.959.362C9.51-.121 8.783-.12 8.335.365s-.447 1.27.002 1.754L21.224 16 8.336 29.881a1.311 1.311 0 0 0-.002 1.754c.225.243.519.365.813.365s.587-.121.811-.362l13.703-14.76c.216-.232.338-.549.338-.878s-.122-.645-.338-.878z"/>
    </symbol>
  </defs>
</svg>
